<svg xmlns="http://www.w3.org/2000/svg" width="200" height="200" viewBox="0 0 200 200">
      <rect width="200" height="200" fill="#f5f5f5"/>
      <circle cx="100" cy="85" r="50" fill="#e8f4ea"/>
      <ellipse cx="85" cy="75" rx="10" ry="5" transform="rotate(-20 85 75)" fill="#fff" stroke="#ddd" stroke-width="1"/>
      <ellipse cx="110" cy="70" rx="10" ry="5" transform="rotate(15 110 70)" fill="#fff" stroke="#ddd" stroke-width="1"/>
      <ellipse cx="90" cy="95" rx="10" ry="5" transform="rotate(30 90 95)" fill="#fff" stroke="#ddd" stroke-width="1"/>
      <ellipse cx="115" cy="90" rx="10" ry="5" transform="rotate(-10 115 90)" fill="#fff" stroke="#ddd" stroke-width="1"/>
      <ellipse cx="80" cy="60" rx="10" ry="5" transform="rotate(10 80 60)" fill="#fff" stroke="#ddd" stroke-width="1"/>
      <ellipse cx="105" cy="105" rx="10" ry="5" transform="rotate(-25 105 105)" fill="#fff" stroke="#ddd" stroke-width="1"/>
      <path d="M70,100 C70,130 130,130 130,100 L120,115 C120,130 80,130 80,115 Z" fill="#4caf50" opacity="0.2" stroke="#388e3c" stroke-width="1"/>
      <text x="100" y="160" font-family="Arial, sans-serif" font-size="14" fill="#388e3c" text-anchor="middle" font-weight="bold">Premium Rice</text>
      <text x="100" y="180" font-family="Arial, sans-serif" font-size="10" fill="#666" text-anchor="middle">Image Placeholder</text>
    </svg>